<svg preserveAspectRatio="none" overflow="visible" style="display: block;" width="32" height="32" viewBox="0 0 32 32" fill="none" xmlns="http://www.w3.org/2000/svg">
<g id="chat-smile-line">
<rect id="Rectangle 19692" x="7" y="9" width="21" height="15" rx="1" fill="#DFF6EE"/>
<path id="Vector" d="M9.17479 24.6923L3.69227 29V6.23077C3.69227 5.55104 4.24331 5 4.92304 5H27.0769C27.7566 5 28.3077 5.55104 28.3077 6.23077V23.4615C28.3077 24.1413 27.7566 24.6923 27.0769 24.6923H9.17479ZM8.32343 22.2308H25.8461V7.46154H6.15381V23.9355L8.32343 22.2308ZM9.84611 12.8462H12.3077C12.3077 14.8854 13.9607 16.5385 16 16.5385C18.0392 16.5385 19.6923 14.8854 19.6923 12.8462H22.1538C22.1538 16.2448 19.3986 19 16 19C12.6013 19 9.84611 16.2448 9.84611 12.8462Z" fill="#010101"/>
<path id="Vector_2" d="M9.84617 12.8462H12.3077C12.3077 14.8855 13.9608 16.5385 16 16.5385C18.0393 16.5385 19.6923 14.8855 19.6923 12.8462H22.1539C22.1539 16.2449 19.3987 19.0001 16 19.0001C12.6013 19.0001 9.84617 16.2449 9.84617 12.8462Z" fill="#F574A8"/>
</g>
</svg>
