<svg preserveAspectRatio="none" overflow="visible" style="display: block;" width="20.358" height="18.2338" viewBox="0 0 20.358 18.2338" fill="none" xmlns="http://www.w3.org/2000/svg">
<path id="Vector" d="M15.108 0L16.3035 2.08907L18.545 3.20324L16.3035 4.31741L15.108 6.40648L13.9125 4.31741L11.6709 3.20324L13.9125 2.08907L15.108 0ZM9.36693 6.86408L13.8993 9.11689L9.36693 11.3697L6.94967 15.5938L4.53239 11.3697L0 9.11689L4.53239 6.86408L6.94967 2.64003L9.36693 6.86408ZM10.0468 9.11689L8.02693 8.11292L6.94967 6.23047L5.8724 8.11292L3.85253 9.11689L5.8724 10.1209L6.94967 12.0034L8.02693 10.1209L10.0468 9.11689ZM17.5252 12.7778L16.0145 10.1378L14.5037 12.7778L11.6709 14.1858L14.5037 15.5938L16.0145 18.2338L17.5252 15.5938L20.358 14.1858L17.5252 12.7778Z" fill="#7A7A7A"/>
</svg>
